<?xml version="1.0" standalone="no"?>
<!DOCTYPE svg PUBLIC "-//W3C//DTD SVG 20010904//EN"
 "http://www.w3.org/TR/2001/REC-SVG-20010904/DTD/svg10.dtd">
<svg version="1.0" xmlns="http://www.w3.org/2000/svg"
 width="512.000000pt" height="512.000000pt" viewBox="0 0 512.000000 512.000000"
 preserveAspectRatio="xMidYMid meet">
<metadata>
Created by potrace 1.14, written by Peter Selinger 2001-2017
</metadata>
<g transform="translate(0.000000,512.000000) scale(0.100000,-0.100000)"
fill="#000000" stroke="none">
<path d="M0 2566 l0 -2554 948 -7 c901 -8 4150 -1 4159 8 9 9 16 3258 8 4160
l-7 947 -2554 0 -2554 0 0 -2554z m2217 1749 c96 -43 165 -122 205 -234 15
-42 22 -90 25 -196 8 -215 -25 -323 -127 -426 -161 -163 -443 -136 -575 55
-53 78 -76 160 -82 301 -6 138 10 236 54 325 29 60 102 139 151 164 102 53
248 58 349 11z m-1564 -82 c14 -60 47 -204 73 -320 27 -117 51 -213 54 -213 3
0 46 143 95 318 l90 317 69 0 70 0 83 -300 c46 -165 86 -312 91 -328 5 -21 25
51 81 303 l74 330 84 0 c54 0 83 -4 83 -11 0 -10 -197 -831 -221 -921 l-10
-38 -74 0 -74 0 -11 38 c-5 20 -47 168 -93 329 l-82 292 -96 -327 -95 -327
-77 -3 c-42 -2 -77 -1 -77 2 0 2 -52 218 -115 479 -63 261 -115 477 -115 481
0 3 38 6 84 6 l84 0 25 -107z m2356 97 c173 -29 272 -149 258 -316 -7 -94 -53
-169 -137 -225 l-23 -15 101 -185 c56 -102 102 -193 102 -203 0 -15 -10 -16
-86 -14 l-87 3 -96 180 -97 180 -92 3 -92 3 0 -186 0 -185 -85 0 -85 0 0 485
0 485 178 0 c97 0 206 -5 241 -10z m561 -405 l0 -415 220 0 220 0 0 -70 0 -70
-305 0 -305 0 0 485 0 485 85 0 85 0 0 -415z m909 404 c223 -36 351 -210 351
-479 0 -173 -42 -282 -142 -375 -95 -88 -134 -99 -375 -103 l-203 -3 0 485 0
486 153 0 c83 0 181 -5 216 -11z m-1602 -2048 c88 -39 162 -142 179 -248 l7
-43 -64 0 -64 0 -18 60 c-30 105 -89 150 -197 150 -155 0 -235 -102 -247 -315
-10 -178 29 -325 102 -380 48 -37 129 -52 199 -36 76 17 120 61 143 141 l16
60 65 0 65 0 -7 -42 c-11 -65 -40 -123 -91 -177 -63 -67 -130 -93 -245 -95
-121 -1 -178 20 -256 98 -90 90 -124 194 -124 376 0 254 80 400 253 462 73 26
212 21 284 -11z m-1367 -36 l0 -55 -150 0 -150 0 0 -410 0 -410 -65 0 -65 0 0
410 0 410 -145 0 -145 0 0 55 0 55 360 0 360 0 0 -55z m720 0 l0 -55 -230 0
-230 0 0 -145 0 -145 200 0 200 0 0 -55 0 -55 -200 0 -200 0 0 -160 0 -160
235 0 235 0 0 -50 0 -50 -300 0 -300 0 0 465 0 465 295 0 295 0 0 -55z m1130
-145 l0 -200 230 0 230 0 0 200 0 200 65 0 65 0 0 -465 0 -465 -65 0 -65 0 0
210 0 210 -230 0 -230 0 0 -210 0 -210 -65 0 -65 0 0 465 0 465 65 0 65 0 0
-200z"/>
<path d="M1986 4186 c-52 -20 -100 -68 -128 -130 -21 -46 -23 -65 -23 -206 0
-141 2 -160 24 -208 79 -177 299 -187 386 -18 28 56 30 67 33 201 5 162 -8
224 -57 291 -50 70 -153 100 -235 70z"/>
<path d="M2760 4041 l0 -151 113 0 c129 0 167 13 205 70 20 29 23 44 20 88 -9
107 -54 136 -220 140 l-118 4 0 -151z"/>
<path d="M4280 3850 l0 -343 93 5 c200 11 275 93 285 308 5 129 -9 204 -51
267 -48 71 -105 96 -229 101 l-98 4 0 -342z"/>
</g>
</svg>
